<svg id="Слой_1" data-name="Слой 1" xmlns="http://www.w3.org/2000/svg" viewBox="0 0 441 356"><defs><style>.cls-1,.cls-2{fill:#fff;}.cls-2,.cls-3{stroke:#fff;stroke-miterlimit:10;}.cls-2{stroke-width:2px;}.cls-3{fill:none;stroke-width:12px;}</style></defs><path class="cls-1" d="M105.34,97a8.66,8.66,0,0,1,8.66,8.66v50.68a8.66,8.66,0,0,1-8.66,8.66H54.66A8.66,8.66,0,0,1,46,156.34V105.66A8.66,8.66,0,0,1,54.66,97h50.68m0-13H54.66A21.66,21.66,0,0,0,33,105.66v50.68A21.66,21.66,0,0,0,54.66,178h50.68A21.66,21.66,0,0,0,127,156.34V105.66A21.66,21.66,0,0,0,105.34,84Z" transform="translate(-33 -84)"/><rect class="cls-1" x="100" y="45" width="35" height="4"/><polygon class="cls-1" points="141 39 94 39 94 55 141 55 141 39 141 39"/><rect class="cls-1" x="130" y="45" width="5" height="32"/><polygon class="cls-1" points="141 39 124 39 124 83 141 83 141 39 141 39"/><polygon class="cls-2" points="132.51 121.39 154 84 111.01 84 132.51 121.39"/><rect class="cls-3" x="84.5" y="134" width="265" height="92" rx="21.88"/><line class="cls-3" x1="174" y1="139" x2="174" y2="224"/><line class="cls-3" x1="260" y1="136" x2="260" y2="226"/><rect class="cls-1" x="361" y="179" width="35" height="4"/><polygon class="cls-1" points="402 173 355 173 355 189 402 189 402 173 402 173"/><rect class="cls-1" x="391" y="179" width="5" height="32"/><polygon class="cls-1" points="402 173 385 173 385 217 402 217 402 173 402 173"/><polygon class="cls-2" points="393.69 253.38 415.18 216 372.19 216 393.69 253.38"/><path class="cls-1" d="M452.34,359a8.66,8.66,0,0,1,8.66,8.66v50.68a8.66,8.66,0,0,1-8.66,8.66H401.66a8.66,8.66,0,0,1-8.66-8.66V367.66a8.66,8.66,0,0,1,8.66-8.66h50.68m0-13H401.66A21.66,21.66,0,0,0,380,367.66v50.68A21.66,21.66,0,0,0,401.66,440h50.68A21.66,21.66,0,0,0,474,418.34V367.66A21.66,21.66,0,0,0,452.34,346Z" transform="translate(-33 -84)"/></svg>